# xmcd
#
# Track frame offsets: 
#        150
#        21379
#        38660
#        51600
#        71275
#        87384
#        102605
#        124919
#        140553
#        160792
#        183717
#
# Disc length: 2702 seconds
#
# Revision: 0
# Processed by: cddbd v1.5.2PL0 Copyright (c) Steve Scherf et al.
# Submitted via: ExactAudioCopy v0.99pb5
#
DISCID=a20a8c0b
DTITLE=The Vaughan Brothers - Family Style
DYEAR=1990
DGENRE=Blues
TTITLE0=Hard to be
TTITLE1=White Boots
TTITLE2=D/FW
TTITLE3=God Texan
TTITLE4=Hillbillies from Outerspace
TTITLE5=Long Way from Home
TTITLE6=Tick Tock
TTITLE7=Telephone Song
TTITLE8=Baboom - Mama Said
TTITLE9=Brothers
TTITLE10=Tick Tock [Edited Single Version]
EXTD=
EXTT0=
EXTT1=
EXTT2=
EXTT3=
EXTT4=
EXTT5=
EXTT6=
EXTT7=
EXTT8=
EXTT9=
EXTT10=
PLAYORDER=
